<?xml version="1.0" encoding="UTF-8"?>
<svg version="1.1" xmlns="http://www.w3.org/2000/svg" width="1000" height="1000">
<path d="M0 0 C3.13782957 1.97819691 4.61581636 3.88885059 6.875 6.8125 C9.11636562 8.67279249 11.41869126 10.42348067 13.75390625 12.1640625 C15.63196806 13.62362435 17.31994732 15.01400457 18.875 16.8125 C18.875 17.4725 18.875 18.1325 18.875 18.8125 C20.195 19.1425 21.515 19.4725 22.875 19.8125 C22.875 20.4725 22.875 21.1325 22.875 21.8125 C23.4525 22.080625 24.03 22.34875 24.625 22.625 C26.93050043 23.84179189 28.89556192 25.11583879 30.875 26.8125 C30.875 27.4725 30.875 28.1325 30.875 28.8125 C31.865 28.8125 32.855 28.8125 33.875 28.8125 C35.5625 30.1875 35.5625 30.1875 36.875 31.8125 C36.875 32.4725 36.875 33.1325 36.875 33.8125 C38.195 34.1425 39.515 34.4725 40.875 34.8125 C40.875 35.4725 40.875 36.1325 40.875 36.8125 C41.7103125 36.9053125 41.7103125 36.9053125 42.5625 37 C45.81977526 38.14444806 47.5249098 40.33872084 49.875 42.8125 C50.535 43.1425 51.195 43.4725 51.875 43.8125 C51.875 44.4725 51.875 45.1325 51.875 45.8125 C52.865 46.1425 53.855 46.4725 54.875 46.8125 C54.875 47.4725 54.875 48.1325 54.875 48.8125 C56.195 49.1425 57.515 49.4725 58.875 49.8125 C58.875 50.4725 58.875 51.1325 58.875 51.8125 C59.514375 51.93625 60.15375 52.06 60.8125 52.1875 C61.493125 52.39375 62.17375 52.6 62.875 52.8125 C63.205 53.4725 63.535 54.1325 63.875 54.8125 C64.865 55.1425 65.855 55.4725 66.875 55.8125 C68.5625 57.25 68.5625 57.25 69.875 58.8125 C69.875 59.4725 69.875 60.1325 69.875 60.8125 C71.195 61.1425 72.515 61.4725 73.875 61.8125 C73.875 62.4725 73.875 63.1325 73.875 63.8125 C74.473125 63.915625 75.07125 64.01875 75.6875 64.125 C78.18758286 64.91074033 79.25035082 65.78168853 80.875 67.8125 C80.875 68.4725 80.875 69.1325 80.875 69.8125 C82.195 70.1425 83.515 70.4725 84.875 70.8125 C84.875 71.4725 84.875 72.1325 84.875 72.8125 C86.195 73.1425 87.515 73.4725 88.875 73.8125 C88.875 74.4725 88.875 75.1325 88.875 75.8125 C90.195 76.1425 91.515 76.4725 92.875 76.8125 C92.875 77.4725 92.875 78.1325 92.875 78.8125 C94.195 79.1425 95.515 79.4725 96.875 79.8125 C96.875 80.8025 96.875 81.7925 96.875 82.8125 C97.535 82.8125 98.195 82.8125 98.875 82.8125 C102.07060262 89.38200066 103.88920704 94.60674524 101.875 101.8125 C100.4375 104.875 100.4375 104.875 98.875 106.8125 C98.215 106.8125 97.555 106.8125 96.875 106.8125 C96.76929688 107.39902344 96.66359375 107.98554688 96.5546875 108.58984375 C95.78005777 111.12297199 94.76245202 112.41525858 93 114.375 C92.23042969 115.24318359 92.23042969 115.24318359 91.4453125 116.12890625 C90.66800781 116.96228516 90.66800781 116.96228516 89.875 117.8125 C89.35679687 118.37839844 88.83859375 118.94429688 88.3046875 119.52734375 C86.875 120.8125 86.875 120.8125 84.875 120.8125 C84.6275 121.369375 84.38 121.92625 84.125 122.5 C81.97288825 126.48140674 79.05207569 129.63542431 75.875 132.8125 C75.25625 133.59625 74.6375 134.38 74 135.1875 C71.78361829 137.92538328 69.36437533 140.32312467 66.875 142.8125 C65.7921875 144.2046875 65.7921875 144.2046875 64.6875 145.625 C64.089375 146.346875 63.49125 147.06875 62.875 147.8125 C62.215 147.8125 61.555 147.8125 60.875 147.8125 C60.545 148.8025 60.215 149.7925 59.875 150.8125 C59.215 150.8125 58.555 150.8125 57.875 150.8125 C57.64425781 151.36164063 57.41351562 151.91078125 57.17578125 152.4765625 C55.51094737 155.46626418 53.39749401 157.68797118 51.0625 160.1875 C48.24022709 163.22969028 45.45708013 166.25107635 42.875 169.5 C42.215 170.263125 41.555 171.02625 40.875 171.8125 C40.215 171.8125 39.555 171.8125 38.875 171.8125 C38.5346875 172.92625 38.5346875 172.92625 38.1875 174.0625 C36.60220952 177.384061 34.77832025 178.58437051 31.875 180.8125 C30.95583311 181.8761074 30.05998603 182.96027652 29.1875 184.0625 C28.0428125 185.42375 28.0428125 185.42375 26.875 186.8125 C26.215 186.8125 25.555 186.8125 24.875 186.8125 C24.6275 187.555 24.38 188.2975 24.125 189.0625 C22.77034961 192.04273087 21.3648459 193.71169252 18.875 195.8125 C18.215 195.8125 17.555 195.8125 16.875 195.8125 C16.6275 196.555 16.38 197.2975 16.125 198.0625 C14.75600955 201.07427898 13.26800926 202.56025599 10.875 204.8125 C10.235625 205.6375 9.59625 206.4625 8.9375 207.3125 C6.875 209.8125 6.875 209.8125 4.5 211.625 C1.52843725 214.10130229 -0.45226076 216.79301879 -2.703125 219.9140625 C-4.33030886 222.08662117 -6.17236227 223.93218218 -8.125 225.8125 C-8.455 226.4725 -8.785 227.1325 -9.125 227.8125 C-9.785 227.8125 -10.445 227.8125 -11.125 227.8125 C-11.3725 228.369375 -11.62 228.92625 -11.875 229.5 C-13.85465114 233.16235461 -16.15456464 236.0518885 -19.4375 238.625 C-23.7956567 242.17233685 -27.47488375 246.47144837 -30.7109375 251.0625 C-31.17757813 251.64 -31.64421875 252.2175 -32.125 252.8125 C-32.785 252.8125 -33.445 252.8125 -34.125 252.8125 C-34.49818359 253.64587891 -34.49818359 253.64587891 -34.87890625 254.49609375 C-36.34595985 257.22324982 -38.11386002 259.46913723 -40.0625 261.875 C-41.09697266 263.16083984 -41.09697266 263.16083984 -42.15234375 264.47265625 C-45.36450626 268.28272624 -45.36450626 268.28272624 -47.125 269.8125 C-47.785 269.8125 -48.445 269.8125 -49.125 269.8125 C-49.4653125 270.63041016 -49.4653125 270.63041016 -49.8125 271.46484375 C-51.52513551 274.52821857 -53.72853045 276.81481814 -56.125 279.375 C-58.69944258 282.13279678 -61.03136463 284.67204694 -63.125 287.8125 C-63.785 287.8125 -64.445 287.8125 -65.125 287.8125 C-65.38410156 288.38871094 -65.64320313 288.96492188 -65.91015625 289.55859375 C-67.22099382 291.99059787 -68.72097834 293.81962421 -70.5625 295.875 C-71.15933594 296.54660156 -71.75617188 297.21820312 -72.37109375 297.91015625 C-72.94988281 298.53792969 -73.52867187 299.16570312 -74.125 299.8125 C-74.65222656 300.38871094 -75.17945313 300.96492188 -75.72265625 301.55859375 C-77.125 302.8125 -77.125 302.8125 -79.125 302.8125 C-79.5890625 303.740625 -79.5890625 303.740625 -80.0625 304.6875 C-80.75 306.0625 -81.4375 307.4375 -82.125 308.8125 C-82.785 308.8125 -83.445 308.8125 -84.125 308.8125 C-84.4653125 309.92625 -84.4653125 309.92625 -84.8125 311.0625 C-86.41078576 314.41128921 -88.19909441 315.53679565 -91.125 317.8125 C-94.18949764 321.06558211 -97.13485626 324.40776406 -99.7109375 328.0625 C-100.17757813 328.64 -100.64421875 329.2175 -101.125 329.8125 C-101.785 329.8125 -102.445 329.8125 -103.125 329.8125 C-103.455 330.8025 -103.785 331.7925 -104.125 332.8125 C-104.785 332.8125 -105.445 332.8125 -106.125 332.8125 C-106.3725 333.555 -106.62 334.2975 -106.875 335.0625 C-108.22965039 338.04273087 -109.6351541 339.71169252 -112.125 341.8125 C-112.785 341.8125 -113.445 341.8125 -114.125 341.8125 C-114.4653125 342.92625 -114.4653125 342.92625 -114.8125 344.0625 C-116.38423147 347.35565164 -118.27393889 348.58728157 -121.125 350.8125 C-121.8675 352.05 -121.8675 352.05 -122.625 353.3125 C-124.37968995 356.23698325 -126.4399061 357.74704315 -129.125 359.8125 C-129.785 360.8025 -130.445 361.7925 -131.125 362.8125 C-131.785 362.8125 -132.445 362.8125 -133.125 362.8125 C-133.3725 363.555 -133.62 364.2975 -133.875 365.0625 C-135.22965039 368.04273087 -136.6351541 369.71169252 -139.125 371.8125 C-139.785 371.8125 -140.445 371.8125 -141.125 371.8125 C-141.393125 372.575625 -141.66125 373.33875 -141.9375 374.125 C-143.07634505 376.70238618 -143.93916671 378.08204864 -146.125 379.8125 C-146.785 379.8125 -147.445 379.8125 -148.125 379.8125 C-148.49625 380.6478125 -148.49625 380.6478125 -148.875 381.5 C-150.85465114 385.16235461 -153.15456464 388.0518885 -156.4375 390.625 C-160.7956567 394.17233685 -164.47488375 398.47144837 -167.7109375 403.0625 C-168.41089844 403.92875 -168.41089844 403.92875 -169.125 404.8125 C-169.785 404.8125 -170.445 404.8125 -171.125 404.8125 C-171.125 405.4725 -171.125 406.1325 -171.125 406.8125 C-172.43700404 408.16682675 -173.77131404 409.49983482 -175.125 410.8125 C-175.455 411.4725 -175.785 412.1325 -176.125 412.8125 C-176.785 412.8125 -177.445 412.8125 -178.125 412.8125 C-178.49625 413.6478125 -178.49625 413.6478125 -178.875 414.5 C-181.47672975 419.31320003 -184.86052969 422.47007733 -189.125 425.8125 C-189.455 426.4725 -189.785 427.1325 -190.125 427.8125 C-190.785 427.8125 -191.445 427.8125 -192.125 427.8125 C-192.49625 428.6478125 -192.49625 428.6478125 -192.875 429.5 C-196.01615765 435.31114164 -200.50260011 439.43044336 -206.125 442.8125 C-209.625 443.6875 -209.625 443.6875 -212.125 443.8125 C-212.125 444.4725 -212.125 445.1325 -212.125 445.8125 C-212.80304688 446.04324219 -213.48109375 446.27398438 -214.1796875 446.51171875 C-218.9715755 448.19087064 -223.56342152 449.94956935 -228.0625 452.3125 C-231.68121466 454.19354344 -235.23683378 455.58099908 -239.125 456.8125 C-243.98217377 458.35257949 -248.36693639 460.29499402 -252.87890625 462.6484375 C-259.65103724 466.15816799 -266.55286583 468.73076655 -274.125 469.8125 C-274.125 470.4725 -274.125 471.1325 -274.125 471.8125 C-276.72794898 472.89884213 -279.33197567 473.98236089 -281.9375 475.0625 C-282.70908447 475.3824292 -283.48066895 475.7023584 -284.27563477 476.03198242 C-289.5043117 478.18483877 -294.76177713 480.18002328 -300.12109375 481.98828125 C-302.30560921 482.7364576 -302.30560921 482.7364576 -304.125 484.8125 C-305.9296875 485.6640625 -305.9296875 485.6640625 -308 486.4375 C-309.01707031 486.82808594 -309.01707031 486.82808594 -310.0546875 487.2265625 C-312.125 487.8125 -312.125 487.8125 -316.125 487.8125 C-316.125 488.4725 -316.125 489.1325 -316.125 489.8125 C-317.89358691 490.48510351 -319.66496016 491.15038395 -321.4375 491.8125 C-322.42363281 492.18375 -323.40976562 492.555 -324.42578125 492.9375 C-327.125 493.8125 -327.125 493.8125 -330.125 493.8125 C-330.125 494.4725 -330.125 495.1325 -330.125 495.8125 C-332.765 496.1425 -335.405 496.4725 -338.125 496.8125 C-338.125 497.4725 -338.125 498.1325 -338.125 498.8125 C-340.435 499.1425 -342.745 499.4725 -345.125 499.8125 C-345.125 500.4725 -345.125 501.1325 -345.125 501.8125 C-347.105 502.1425 -349.085 502.4725 -351.125 502.8125 C-351.125 503.4725 -351.125 504.1325 -351.125 504.8125 C-353.435 505.1425 -355.745 505.4725 -358.125 505.8125 C-358.125 506.4725 -358.125 507.1325 -358.125 507.8125 C-360.765 508.1425 -363.405 508.4725 -366.125 508.8125 C-366.125 509.4725 -366.125 510.1325 -366.125 510.8125 C-368.105 511.1425 -370.085 511.4725 -372.125 511.8125 C-372.125 512.4725 -372.125 513.1325 -372.125 513.8125 C-374.765 514.1425 -377.405 514.4725 -380.125 514.8125 C-380.125 515.4725 -380.125 516.1325 -380.125 516.8125 C-382.765 517.1425 -385.405 517.4725 -388.125 517.8125 C-388.125 518.4725 -388.125 519.1325 -388.125 519.8125 C-391.21734528 520.71143758 -394.03297357 520.97599234 -397.25 521 C-398.11882812 521.01417969 -398.98765625 521.02835938 -399.8828125 521.04296875 C-402.125 520.8125 -402.125 520.8125 -404.125 518.8125 C-404.39491906 516.12410615 -404.21237357 513.52108064 -404.125 510.8125 C-403.465 510.8125 -402.805 510.8125 -402.125 510.8125 C-401.795 508.8325 -401.465 506.8525 -401.125 504.8125 C-400.465 504.8125 -399.805 504.8125 -399.125 504.8125 C-399.00125 503.69875 -398.8775 502.585 -398.75 501.4375 C-398.125 497.8125 -398.125 497.8125 -396.125 495.8125 C-395.41252268 494.1648962 -394.75099617 492.49486471 -394.125 490.8125 C-393.45833333 489.14583333 -392.79166667 487.47916667 -392.125 485.8125 C-391.465 485.8125 -390.805 485.8125 -390.125 485.8125 C-389.795 483.5025 -389.465 481.1925 -389.125 478.8125 C-388.465 478.8125 -387.805 478.8125 -387.125 478.8125 C-386.795 476.8325 -386.465 474.8525 -386.125 472.8125 C-385.465 472.8125 -384.805 472.8125 -384.125 472.8125 C-383.795 470.5025 -383.465 468.1925 -383.125 465.8125 C-382.465 465.8125 -381.805 465.8125 -381.125 465.8125 C-381.021875 464.966875 -380.91875 464.12125 -380.8125 463.25 C-380.0421146 459.39807299 -378.76225486 456.37174969 -377.125 452.8125 C-376.465 452.8125 -375.805 452.8125 -375.125 452.8125 C-374.795 450.8325 -374.465 448.8525 -374.125 446.8125 C-373.465 446.8125 -372.805 446.8125 -372.125 446.8125 C-371.98964844 445.53632812 -371.98964844 445.53632812 -371.8515625 444.234375 C-371.03343628 440.38126441 -369.45354201 437.42333941 -367.5 434.0625 C-362.79469441 425.65541544 -359.43471543 416.84181742 -356.125 407.8125 C-355.465 407.8125 -354.805 407.8125 -354.125 407.8125 C-353.795 405.8325 -353.465 403.8525 -353.125 401.8125 C-352.465 401.8125 -351.805 401.8125 -351.125 401.8125 C-350.795 399.8325 -350.465 397.8525 -350.125 395.8125 C-349.465 395.8125 -348.805 395.8125 -348.125 395.8125 C-347.795 393.5025 -347.465 391.1925 -347.125 388.8125 C-346.465 388.8125 -345.805 388.8125 -345.125 388.8125 C-345.021875 388.131875 -344.91875 387.45125 -344.8125 386.75 C-343.96806329 383.14195222 -342.73260999 380.15632878 -341.125 376.8125 C-340.465 376.4825 -339.805 376.1525 -339.125 375.8125 C-338.980625 374.884375 -338.83625 373.95625 -338.6875 373 C-338.08433579 369.58206948 -337.20687999 368.47730639 -335.125 365.8125 C-334.84269531 364.93078125 -334.56039062 364.0490625 -334.26953125 363.140625 C-332.97445776 359.37474578 -331.18136764 356.02594931 -329.25 352.5625 C-326.50575228 347.54465713 -324.13759711 342.58598033 -322.12109375 337.2265625 C-319.6163575 331.15626054 -316.42135277 324.81908995 -312.125 319.8125 C-311.465 319.8125 -310.805 319.8125 -310.125 319.8125 C-309.7228125 318.94625 -309.7228125 318.94625 -309.3125 318.0625 C-308.09570811 315.75699957 -306.82166121 313.79193808 -305.125 311.8125 C-304.465 311.8125 -303.805 311.8125 -303.125 311.8125 C-302.86589844 311.23628906 -302.60679687 310.66007812 -302.33984375 310.06640625 C-301.02900618 307.63440213 -299.52902166 305.80537579 -297.6875 303.75 C-297.09066406 303.07839844 -296.49382812 302.40679688 -295.87890625 301.71484375 C-295.30011719 301.08707031 -294.72132813 300.45929688 -294.125 299.8125 C-293.59777344 299.23628906 -293.07054687 298.66007812 -292.52734375 298.06640625 C-291.125 296.8125 -291.125 296.8125 -289.125 296.8125 C-288.73441406 295.94431641 -288.73441406 295.94431641 -288.3359375 295.05859375 C-287.04307675 292.66054558 -285.57774925 290.89031303 -283.75 288.875 C-281.74570709 286.63832531 -279.80836999 284.41445085 -277.9375 282.0625 C-276.12496349 279.81245468 -274.16669863 277.85419863 -272.125 275.8125 C-271.24375553 274.73424015 -270.36899555 273.65065571 -269.5 272.5625 C-268.71625 271.655 -267.9325 270.7475 -267.125 269.8125 C-266.465 269.8125 -265.805 269.8125 -265.125 269.8125 C-264.795 268.8225 -264.465 267.8325 -264.125 266.8125 C-263.465 266.8125 -262.805 266.8125 -262.125 266.8125 C-261.795 265.8225 -261.465 264.8325 -261.125 263.8125 C-260.465 263.8125 -259.805 263.8125 -259.125 263.8125 C-258.856875 263.049375 -258.58875 262.28625 -258.3125 261.5 C-257.17365495 258.92261382 -256.31083329 257.54295136 -254.125 255.8125 C-253.465 255.8125 -252.805 255.8125 -252.125 255.8125 C-251.85300781 255.235 -251.58101562 254.6575 -251.30078125 254.0625 C-248.27034411 248.26339105 -244.3067696 243.76700838 -239.125 239.8125 C-238.465 238.9875 -237.805 238.1625 -237.125 237.3125 C-235.125 234.8125 -235.125 234.8125 -232.5625 232.8125 C-229.98663114 230.69896657 -228.78592194 228.65979475 -227.125 225.8125 C-226.465 225.8125 -225.805 225.8125 -225.125 225.8125 C-225.125 224.8225 -225.125 223.8325 -225.125 222.8125 C-223.4853279 221.44610658 -221.81389872 220.1175581 -220.125 218.8125 C-218.76255204 217.16954805 -217.42635125 215.50425663 -216.125 213.8125 C-214.5 212 -214.5 212 -213.125 210.8125 C-212.465 210.8125 -211.805 210.8125 -211.125 210.8125 C-210.8775 210.255625 -210.63 209.69875 -210.375 209.125 C-208.37507289 205.42513485 -205.78489844 202.47128186 -202.81640625 199.5078125 C-200.09054327 196.77799326 -197.47334996 193.97618341 -194.875 191.125 C-194.00359375 190.17238281 -193.1321875 189.21976563 -192.234375 188.23828125 C-190.12006137 186.0104846 -190.12006137 186.0104846 -189.125 183.8125 C-188.465 183.8125 -187.805 183.8125 -187.125 183.8125 C-186.795 182.8225 -186.465 181.8325 -186.125 180.8125 C-185.465 180.8125 -184.805 180.8125 -184.125 180.8125 C-183.8775 180.255625 -183.63 179.69875 -183.375 179.125 C-181.33013024 175.34199094 -178.95575981 172.4608979 -175.5625 169.8125 C-172.94493228 167.66475213 -171.82170941 165.71104525 -170.125 162.8125 C-168.48070171 161.12376121 -166.81115782 159.45944485 -165.125 157.8125 C-163.54547188 155.94896806 -161.9924424 154.0679894 -160.45703125 152.16796875 C-160.01746094 151.72066406 -159.57789063 151.27335938 -159.125 150.8125 C-158.465 150.8125 -157.805 150.8125 -157.125 150.8125 C-156.795 149.8225 -156.465 148.8325 -156.125 147.8125 C-155.465 147.8125 -154.805 147.8125 -154.125 147.8125 C-153.815625 147.19375 -153.50625 146.575 -153.1875 145.9375 C-152.5 144.5625 -151.8125 143.1875 -151.125 141.8125 C-150.465 141.8125 -149.805 141.8125 -149.125 141.8125 C-148.795 140.8225 -148.465 139.8325 -148.125 138.8125 C-147.465 138.8125 -146.805 138.8125 -146.125 138.8125 C-145.8671875 138.24015625 -145.609375 137.6678125 -145.34375 137.078125 C-144.01134058 134.60121005 -142.47443882 132.6783834 -140.625 130.5625 C-140.0165625 129.85609375 -139.408125 129.1496875 -138.78125 128.421875 C-137.125 126.8125 -137.125 126.8125 -135.125 126.8125 C-134.8775 126.255625 -134.63 125.69875 -134.375 125.125 C-132.89575182 122.38839087 -131.19032561 120.13599131 -129.125 117.8125 C-128.465 117.8125 -127.805 117.8125 -127.125 117.8125 C-126.8775 117.07 -126.63 116.3275 -126.375 115.5625 C-125.02034961 112.58226913 -123.6148459 110.91330748 -121.125 108.8125 C-120.465 108.8125 -119.805 108.8125 -119.125 108.8125 C-118.856875 108.049375 -118.58875 107.28625 -118.3125 106.5 C-117.17365495 103.92261382 -116.31083329 102.54295136 -114.125 100.8125 C-113.465 100.8125 -112.805 100.8125 -112.125 100.8125 C-111.8775 100.255625 -111.63 99.69875 -111.375 99.125 C-109.28337296 95.25548998 -106.46194534 91.69440734 -103.125 88.8125 C-102.465 88.8125 -101.805 88.8125 -101.125 88.8125 C-101.125 87.8225 -101.125 86.8325 -101.125 85.8125 C-99.49239286 84.43767293 -97.82274938 83.10602333 -96.125 81.8125 C-95.465 80.8225 -94.805 79.8325 -94.125 78.8125 C-93.465 78.8125 -92.805 78.8125 -92.125 78.8125 C-91.71894531 77.93078125 -91.71894531 77.93078125 -91.3046875 77.03125 C-90.1380184 74.83698495 -88.88460911 73.175785 -87.25 71.3125 C-86.71632813 70.70277344 -86.18265625 70.09304688 -85.6328125 69.46484375 C-84.5050757 68.22900782 -83.32664846 67.03909695 -82.125 65.875 C-80.25042672 63.9418463 -78.76337952 61.98986025 -77.1875 59.8125 C-74.80183746 56.56150898 -72.3411489 54.26692942 -69.125 51.8125 C-67.76672029 50.16610035 -66.43245749 48.49954193 -65.125 46.8125 C-63 44.5 -63 44.5 -61.125 42.8125 C-60.465 42.8125 -59.805 42.8125 -59.125 42.8125 C-58.7846875 42.0390625 -58.7846875 42.0390625 -58.4375 41.25 C-55.43250918 35.66930276 -52.10438675 31.7435948 -47.125 27.8125 C-46.3825 26.575 -46.3825 26.575 -45.625 25.3125 C-43.85703842 22.36589737 -41.81765842 20.92816018 -39.125 18.8125 C-38.20733927 17.74759284 -37.31157028 16.66346758 -36.4375 15.5625 C-35.2928125 14.20125 -35.2928125 14.20125 -34.125 12.8125 C-33.465 12.8125 -32.805 12.8125 -32.125 12.8125 C-31.856875 12.235 -31.58875 11.6575 -31.3125 11.0625 C-30.09570811 8.75699957 -28.82166121 6.79193808 -27.125 4.8125 C-26.465 4.8125 -25.805 4.8125 -25.125 4.8125 C-24.795 3.8225 -24.465 2.8325 -24.125 1.8125 C-17.2543786 -2.53651146 -7.62309302 -2.89379887 0 0 Z M7.875 76.8125 C7.875 77.4725 7.875 78.1325 7.875 78.8125 C7.029375 78.8125 6.18375 78.8125 5.3125 78.8125 C0.22023885 80.29388506 -1.88797097 83.7916867 -5.125 87.8125 C-6.3315625 88.988125 -6.3315625 88.988125 -7.5625 90.1875 C-9.35603624 91.67705501 -9.35603624 91.67705501 -9.125 93.8125 C-9.785 93.8125 -10.445 93.8125 -11.125 93.8125 C-13.52320305 96.44934747 -13.52320305 96.44934747 -14.125 99.8125 C-15.115 100.1425 -16.105 100.4725 -17.125 100.8125 C-17.125 101.4725 -17.125 102.1325 -17.125 102.8125 C-18.115 103.1425 -19.105 103.4725 -20.125 103.8125 C-20.125 104.4725 -20.125 105.1325 -20.125 105.8125 C-21.115 106.1425 -22.105 106.4725 -23.125 106.8125 C-23.125 107.4725 -23.125 108.1325 -23.125 108.8125 C-23.785 108.8125 -24.445 108.8125 -25.125 108.8125 C-26.52710942 110.39290858 -26.52710942 110.39290858 -28 112.5 C-31.74128725 117.488383 -35.90127935 121.97654971 -40.21240234 126.46948242 C-43.15888089 129.17485952 -43.15888089 129.17485952 -44.125 132.8125 C-45.115 133.1425 -46.105 133.4725 -47.125 133.8125 C-47.125 134.4725 -47.125 135.1325 -47.125 135.8125 C-48.115 136.1425 -49.105 136.4725 -50.125 136.8125 C-51.75409091 138.56539056 -53.30904347 140.38823177 -54.8125 142.25 C-55.62074219 143.23871094 -56.42898438 144.22742188 -57.26171875 145.24609375 C-59.32083746 147.55365911 -59.32083746 147.55365911 -59.125 149.8125 C-60.115 150.1425 -61.105 150.4725 -62.125 150.8125 C-62.125 151.4725 -62.125 152.1325 -62.125 152.8125 C-63.115 153.1425 -64.105 153.4725 -65.125 153.8125 C-68.76513067 157.29185472 -68.76513067 157.29185472 -70.125 161.8125 C-71.115 162.1425 -72.105 162.4725 -73.125 162.8125 C-73.125 163.4725 -73.125 164.1325 -73.125 164.8125 C-74.115 165.1425 -75.105 165.4725 -76.125 165.8125 C-79.76513067 169.29185472 -79.76513067 169.29185472 -81.125 173.8125 C-82.115 174.1425 -83.105 174.4725 -84.125 174.8125 C-84.455 175.6375 -84.785 176.4625 -85.125 177.3125 C-85.455 178.1375 -85.785 178.9625 -86.125 179.8125 C-87.115 180.1425 -88.105 180.4725 -89.125 180.8125 C-89.125 181.4725 -89.125 182.1325 -89.125 182.8125 C-90.115 183.1425 -91.105 183.4725 -92.125 183.8125 C-92.125 184.4725 -92.125 185.1325 -92.125 185.8125 C-93.115 186.1425 -94.105 186.4725 -95.125 186.8125 C-95.125 187.4725 -95.125 188.1325 -95.125 188.8125 C-96.61 189.3075 -96.61 189.3075 -98.125 189.8125 C-98.125 190.4725 -98.125 191.1325 -98.125 191.8125 C-98.785 191.8125 -99.445 191.8125 -100.125 191.8125 C-102.52320305 194.44934747 -102.52320305 194.44934747 -103.125 197.8125 C-104.61 198.3075 -104.61 198.3075 -106.125 198.8125 C-109.76513067 202.29185472 -109.76513067 202.29185472 -111.125 206.8125 C-112.115 207.1425 -113.105 207.4725 -114.125 207.8125 C-117.76513067 211.29185472 -117.76513067 211.29185472 -119.125 215.8125 C-120.115 216.1425 -121.105 216.4725 -122.125 216.8125 C-122.125 217.4725 -122.125 218.1325 -122.125 218.8125 C-123.115 219.1425 -124.105 219.4725 -125.125 219.8125 C-125.125 220.4725 -125.125 221.1325 -125.125 221.8125 C-125.785 221.8125 -126.445 221.8125 -127.125 221.8125 C-127.125 222.8025 -127.125 223.7925 -127.125 224.8125 C-128.115 225.1425 -129.105 225.4725 -130.125 225.8125 C-130.125 226.4725 -130.125 227.1325 -130.125 227.8125 C-131.115 228.1425 -132.105 228.4725 -133.125 228.8125 C-133.125 229.4725 -133.125 230.1325 -133.125 230.8125 C-134.115 231.1425 -135.105 231.4725 -136.125 231.8125 C-136.125 232.4725 -136.125 233.1325 -136.125 233.8125 C-137.115 234.1425 -138.105 234.4725 -139.125 234.8125 C-140.61953704 236.50401518 -140.61953704 236.50401518 -142 238.5625 C-144.45403287 241.98105325 -147.14749129 244.83499129 -150.125 247.8125 C-151.42019995 249.97870544 -151.42019995 249.97870544 -152.125 251.8125 C-152.785 251.8125 -153.445 251.8125 -154.125 251.8125 C-155.59370728 253.22569919 -155.59370728 253.22569919 -157.125 255.125 C-161.0069307 259.71273628 -165.08138472 264.10264043 -169.18359375 268.4921875 C-171.33890238 270.56392036 -171.33890238 270.56392036 -171.125 272.8125 C-172.115 273.1425 -173.105 273.4725 -174.125 273.8125 C-175.49139342 275.4521721 -176.8199419 277.12360128 -178.125 278.8125 C-179.79166667 280.47916667 -181.45833333 282.14583333 -183.125 283.8125 C-184.40804369 285.19711798 -185.67835381 286.59361494 -186.9375 288 C-187.54207031 288.67417969 -188.14664063 289.34835937 -188.76953125 290.04296875 C-190.32770013 291.70561648 -190.32770013 291.70561648 -190.125 293.8125 C-191.115 294.1425 -192.105 294.4725 -193.125 294.8125 C-193.125 295.4725 -193.125 296.1325 -193.125 296.8125 C-194.115 297.1425 -195.105 297.4725 -196.125 297.8125 C-196.125 298.4725 -196.125 299.1325 -196.125 299.8125 C-197.115 300.1425 -198.105 300.4725 -199.125 300.8125 C-199.125 301.4725 -199.125 302.1325 -199.125 302.8125 C-199.785 302.8125 -200.445 302.8125 -201.125 302.8125 C-202.64240976 304.51153023 -204.090128 306.27322723 -205.5 308.0625 C-207.71729313 310.86563312 -209.8555752 313.54951197 -212.4140625 316.046875 C-214.35696589 317.64211281 -214.35696589 317.64211281 -214.125 319.8125 C-215.115 320.1425 -216.105 320.4725 -217.125 320.8125 C-217.125 321.4725 -217.125 322.1325 -217.125 322.8125 C-218.115 323.1425 -219.105 323.4725 -220.125 323.8125 C-222.45007228 329.07450568 -222.99344295 333.44840532 -221 338.875 C-218.79995837 342.32173189 -216.83645827 345.03549877 -213.125 346.8125 C-208.41743382 347.7568534 -204.11939523 347.9438035 -199.859375 345.52734375 C-198.06993115 344.04705179 -196.52907745 342.66224025 -195.125 340.8125 C-195.125 340.1525 -195.125 339.4925 -195.125 338.8125 C-194.135 338.4825 -193.145 338.1525 -192.125 337.8125 C-192.125 337.1525 -192.125 336.4925 -192.125 335.8125 C-191.465 335.8125 -190.805 335.8125 -190.125 335.8125 C-187.72679695 333.17565253 -187.72679695 333.17565253 -187.125 329.8125 C-186.135 329.4825 -185.145 329.1525 -184.125 328.8125 C-182.61285024 327.35909265 -182.61285024 327.35909265 -181.125 325.5 C-178.03967274 321.85905236 -174.86285413 318.31769483 -171.625 314.8125 C-166.44106318 309.18057951 -161.30448797 303.52362397 -156.5 297.5625 C-154.125 294.8125 -154.125 294.8125 -151.4375 292.75 C-148.86649678 290.59591622 -148.09320833 288.98118179 -147.125 285.8125 C-146.465 285.8125 -145.805 285.8125 -145.125 285.8125 C-142.72679695 283.17565253 -142.72679695 283.17565253 -142.125 279.8125 C-141.135 279.4825 -140.145 279.1525 -139.125 278.8125 C-139.125 278.1525 -139.125 277.4925 -139.125 276.8125 C-138.135 276.4825 -137.145 276.1525 -136.125 275.8125 C-132.48486933 272.33314528 -132.48486933 272.33314528 -131.125 267.8125 C-130.135 267.4825 -129.145 267.1525 -128.125 266.8125 C-126.27143529 265.05852045 -126.27143529 265.05852045 -124.5 262.9375 C-123.88898438 262.23882813 -123.27796875 261.54015625 -122.6484375 260.8203125 C-120.9392588 258.79113656 -120.9392588 258.79113656 -120.125 255.8125 C-119.135 255.4825 -118.145 255.1525 -117.125 254.8125 C-117.125 254.1525 -117.125 253.4925 -117.125 252.8125 C-116.465 252.8125 -115.805 252.8125 -115.125 252.8125 C-112.72679695 250.17565253 -112.72679695 250.17565253 -112.125 246.8125 C-111.135 246.4825 -110.145 246.1525 -109.125 245.8125 C-105.48486933 242.33314528 -105.48486933 242.33314528 -104.125 237.8125 C-103.135 237.4825 -102.145 237.1525 -101.125 236.8125 C-101.125 236.1525 -101.125 235.4925 -101.125 234.8125 C-100.135 234.4825 -99.145 234.1525 -98.125 233.8125 C-98.125 233.1525 -98.125 232.4925 -98.125 231.8125 C-97.135 231.4825 -96.145 231.1525 -95.125 230.8125 C-91.48486933 227.33314528 -91.48486933 227.33314528 -90.125 222.8125 C-89.135 222.4825 -88.145 222.1525 -87.125 221.8125 C-83.48486933 218.33314528 -83.48486933 218.33314528 -82.125 213.8125 C-81.135 213.4825 -80.145 213.1525 -79.125 212.8125 C-79.125 212.1525 -79.125 211.4925 -79.125 210.8125 C-78.135 210.4825 -77.145 210.1525 -76.125 209.8125 C-76.125 209.1525 -76.125 208.4925 -76.125 207.8125 C-75.135 207.4825 -74.145 207.1525 -73.125 206.8125 C-73.125 206.1525 -73.125 205.4925 -73.125 204.8125 C-72.135 204.4825 -71.145 204.1525 -70.125 203.8125 C-70.125 203.1525 -70.125 202.4925 -70.125 201.8125 C-69.465 201.8125 -68.805 201.8125 -68.125 201.8125 C-66.7643991 200.32613242 -66.7643991 200.32613242 -65.5 198.4375 C-65.05398438 197.81101562 -64.60796875 197.18453125 -64.1484375 196.5390625 C-62.95503031 194.86027357 -62.95503031 194.86027357 -63.125 192.8125 C-62.50625 192.565 -61.8875 192.3175 -61.25 192.0625 C-58.77431313 190.60621361 -58.17374998 189.43437494 -57.125 186.8125 C-56.465 186.8125 -55.805 186.8125 -55.125 186.8125 C-53.38224224 185.16662025 -53.38224224 185.16662025 -51.625 183.0625 C-51.0165625 182.36640625 -50.408125 181.6703125 -49.78125 180.953125 C-48.24523037 178.96789208 -47.1526034 177.09377955 -46.125 174.8125 C-45.465 174.8125 -44.805 174.8125 -44.125 174.8125 C-41.72679695 172.17565253 -41.72679695 172.17565253 -41.125 168.8125 C-40.135 168.4825 -39.145 168.1525 -38.125 167.8125 C-38.125 167.1525 -38.125 166.4925 -38.125 165.8125 C-37.135 165.4825 -36.145 165.1525 -35.125 164.8125 C-33.17553578 162.66288218 -33.17553578 162.66288218 -31.25 160.0625 C-27.84751706 155.68609534 -24.36346572 151.89658877 -20.3125 148.125 C-18.90136223 146.86031729 -18.90136223 146.86031729 -19.125 144.8125 C-18.135 144.4825 -17.145 144.1525 -16.125 143.8125 C-16.125 143.1525 -16.125 142.4925 -16.125 141.8125 C-15.465 141.8125 -14.805 141.8125 -14.125 141.8125 C-12.54308182 140.32823767 -12.54308182 140.32823767 -11 138.4375 C-10.46117187 137.81101562 -9.92234375 137.18453125 -9.3671875 136.5390625 C-7.93032853 134.89641572 -7.93032853 134.89641572 -8.125 132.8125 C-7.135 132.4825 -6.145 132.1525 -5.125 131.8125 C-2.09222801 128.75741974 -2.09222801 128.75741974 -1.125 124.8125 C-0.135 124.4825 0.855 124.1525 1.875 123.8125 C3.72856471 122.05852045 3.72856471 122.05852045 5.5 119.9375 C6.11101562 119.23882812 6.72203125 118.54015625 7.3515625 117.8203125 C9.0607412 115.79113656 9.0607412 115.79113656 9.875 112.8125 C10.865 112.4825 11.855 112.1525 12.875 111.8125 C14.21923339 110.15461215 15.55118483 108.48673683 16.875 106.8125 C17.7825 106.11125 18.69 105.41 19.625 104.6875 C20.3675 104.06875 21.11 103.45 21.875 102.8125 C21.875 101.8225 21.875 100.8325 21.875 99.8125 C22.535 99.8125 23.195 99.8125 23.875 99.8125 C24.81242541 97.00022378 25.00970844 95.22503156 25 92.3125 C25.00257813 91.5390625 25.00515625 90.765625 25.0078125 89.96875 C24.95645813 87.62802983 24.95645813 87.62802983 23.875 84.8125 C23.215 84.8125 22.555 84.8125 21.875 84.8125 C21.875 83.8225 21.875 82.8325 21.875 81.8125 C21.215 81.8125 20.555 81.8125 19.875 81.8125 C19.875 81.1525 19.875 80.4925 19.875 79.8125 C14.14209085 77.10405119 14.14209085 77.10405119 7.875 76.8125 Z M-291.125 346.8125 C-291.455 347.8025 -291.785 348.7925 -292.125 349.8125 C-292.74375 349.895 -293.3625 349.9775 -294 350.0625 C-296.53946497 350.679973 -296.53946497 350.679973 -297.75 354.125 C-298.20375 355.341875 -298.6575 356.55875 -299.125 357.8125 C-299.516875 358.555 -299.90875 359.2975 -300.3125 360.0625 C-301.33555565 361.94443471 -301.33555565 361.94443471 -301.125 364.8125 C-301.785 364.8125 -302.445 364.8125 -303.125 364.8125 C-303.41375 365.885 -303.7025 366.9575 -304 368.0625 C-304.88774917 371.02166389 -305.72459821 373.1291798 -307.125 375.8125 C-311.97028344 385.40485167 -316.69416051 395.02008255 -321.125 404.8125 C-321.54007813 405.70324219 -321.95515625 406.59398437 -322.3828125 407.51171875 C-322.93582031 408.71248047 -322.93582031 408.71248047 -323.5 409.9375 C-323.97566406 410.96230469 -323.97566406 410.96230469 -324.4609375 412.0078125 C-325.29766439 413.96124318 -325.29766439 413.96124318 -325.125 416.8125 C-325.785 416.8125 -326.445 416.8125 -327.125 416.8125 C-329.36781523 422.01583134 -330.68077239 425.15514585 -329.125 430.8125 C-328.485625 430.915625 -327.84625 431.01875 -327.1875 431.125 C-326.506875 431.351875 -325.82625 431.57875 -325.125 431.8125 C-324.795 432.8025 -324.465 433.7925 -324.125 434.8125 C-323.465 434.8125 -322.805 434.8125 -322.125 434.8125 C-321.795 435.8025 -321.465 436.7925 -321.125 437.8125 C-320.465 437.8125 -319.805 437.8125 -319.125 437.8125 C-318.795 438.8025 -318.465 439.7925 -318.125 440.8125 C-317.465 440.8125 -316.805 440.8125 -316.125 440.8125 C-315.795 441.8025 -315.465 442.7925 -315.125 443.8125 C-314.465 443.8125 -313.805 443.8125 -313.125 443.8125 C-312.795 444.8025 -312.465 445.7925 -312.125 446.8125 C-311.465 446.8125 -310.805 446.8125 -310.125 446.8125 C-309.8775 447.616875 -309.63 448.42125 -309.375 449.25 C-308.40441498 451.92149323 -308.40441498 451.92149323 -306.25 452.6875 C-303.98001045 452.8210288 -302.2814777 452.50565355 -300.125 451.8125 C-300.125 451.1525 -300.125 450.4925 -300.125 449.8125 C-298.84625 449.68875 -297.5675 449.565 -296.25 449.4375 C-292.77709064 449.12207601 -292.77709064 449.12207601 -290.125 446.8125 C-289.135 446.4825 -288.145 446.1525 -287.125 445.8125 C-287.125 445.1525 -287.125 444.4925 -287.125 443.8125 C-284.485 443.4825 -281.845 443.1525 -279.125 442.8125 C-279.125 442.1525 -279.125 441.4925 -279.125 440.8125 C-276.815 440.4825 -274.505 440.1525 -272.125 439.8125 C-272.125 439.1525 -272.125 438.4925 -272.125 437.8125 C-269.155 437.3175 -269.155 437.3175 -266.125 436.8125 C-266.125 436.1525 -266.125 435.4925 -266.125 434.8125 C-263.485 434.4825 -260.845 434.1525 -258.125 433.8125 C-258.125 433.1525 -258.125 432.4925 -258.125 431.8125 C-255.485 431.4825 -252.845 431.1525 -250.125 430.8125 C-250.125 430.1525 -250.125 429.4925 -250.125 428.8125 C-248.145 428.4825 -246.165 428.1525 -244.125 427.8125 C-244.125 427.1525 -244.125 426.4925 -244.125 425.8125 C-240.66 425.3175 -240.66 425.3175 -237.125 424.8125 C-237.125 424.1525 -237.125 423.4925 -237.125 422.8125 C-233.66 422.3175 -233.66 422.3175 -230.125 421.8125 C-230.125 421.1525 -230.125 420.4925 -230.125 419.8125 C-229.155625 419.68875 -228.18625 419.565 -227.1875 419.4375 C-226.176875 419.23125 -225.16625 419.025 -224.125 418.8125 C-222.92227181 416.40704362 -223.02428528 414.86253047 -223.0625 412.1875 C-223.07152344 411.37023437 -223.08054687 410.55296875 -223.08984375 409.7109375 C-223.10144531 409.08445312 -223.11304688 408.45796875 -223.125 407.8125 C-223.785 407.8125 -224.445 407.8125 -225.125 407.8125 C-225.24875 406.905 -225.3725 405.9975 -225.5 405.0625 C-226.37831022 400.49528686 -227.74588502 397.94131016 -231.125 394.8125 C-231.95 393.94625 -232.775 393.08 -233.625 392.1875 C-235.96188754 389.6312374 -235.96188754 389.6312374 -239.125 388.8125 C-239.125 388.1525 -239.125 387.4925 -239.125 386.8125 C-240.83295034 386.18645415 -242.54137998 385.56171585 -244.25 384.9375 C-245.25289063 384.56882812 -246.25578125 384.20015625 -247.2890625 383.8203125 C-249.37664721 383.07844355 -251.49475689 382.42114089 -253.625 381.8125 C-256.5350461 380.64848156 -257.41808427 379.3728736 -259.125 376.8125 C-259.785 376.8125 -260.445 376.8125 -261.125 376.8125 C-261.455 375.1625 -261.785 373.5125 -262.125 371.8125 C-262.785 371.8125 -263.445 371.8125 -264.125 371.8125 C-264.62 368.3475 -264.62 368.3475 -265.125 364.8125 C-265.785 364.8125 -266.445 364.8125 -267.125 364.8125 C-267.2796875 363.2346875 -267.2796875 363.2346875 -267.4375 361.625 C-268.10449332 357.92621887 -268.87490008 355.78263189 -271.125 352.8125 C-271.785 352.8125 -272.445 352.8125 -273.125 352.8125 C-273.62 351.3275 -273.62 351.3275 -274.125 349.8125 C-274.785 349.8125 -275.445 349.8125 -276.125 349.8125 C-276.62 348.3275 -276.62 348.3275 -277.125 346.8125 C-281.745 346.8125 -286.365 346.8125 -291.125 346.8125 Z " fill="#018AD5" transform="translate(651.125,282.1875)"/>
<path d="M0 0 C1.93790657 -0.0076664 1.93790657 -0.0076664 3.91496277 -0.01548767 C7.4440618 -0.02882776 10.9730534 -0.02946179 14.50217271 -0.02692437 C17.45664532 -0.02585097 20.41109652 -0.0307476 23.36556453 -0.03552979 C30.34138237 -0.04660836 37.31714637 -0.04707211 44.29296875 -0.04101562 C51.46900678 -0.03498067 58.64484851 -0.04727839 65.82085305 -0.06858569 C71.99945595 -0.08625115 78.17799664 -0.09219517 84.35662383 -0.08894795 C88.03901523 -0.08714234 91.72126668 -0.08969829 95.40363503 -0.10366249 C99.51531156 -0.11867233 103.62659356 -0.10922768 107.73828125 -0.09765625 C109.54735458 -0.10912186 109.54735458 -0.10912186 111.39297485 -0.12081909 C120.05204622 -0.06712271 128.95132084 0.82219265 136.06323242 6.2746582 C136.06323242 6.9346582 136.06323242 7.5946582 136.06323242 8.2746582 C136.62010742 8.4602832 137.17698242 8.6459082 137.75073242 8.8371582 C141.94580182 11.44490405 144.52031259 15.6458987 146.06323242 20.2746582 C146.15991344 22.58400869 146.19390447 24.89611763 146.19694519 27.20748901 C146.19921075 27.91706257 146.2014763 28.62663613 146.20381051 29.35771191 C146.2101533 31.74133935 146.20932097 34.12490997 146.20849609 36.50854492 C146.21148742 38.2151395 146.21488988 39.92173341 146.21867371 41.62832642 C146.22752078 46.26883597 146.22985212 50.90932709 146.23048949 55.54984426 C146.23143819 59.4216669 146.23511605 63.29348523 146.23866159 67.16530621 C146.24680889 76.29925258 146.24924558 85.43318909 146.24853516 94.56713867 C146.24793433 103.99370354 146.25848654 113.4202112 146.27427882 122.84676158 C146.28734851 130.93600798 146.29271929 139.02523566 146.29207975 147.11449254 C146.29182458 151.94755318 146.29468579 156.78056299 146.3052578 161.61361313 C146.31492912 166.15915703 146.31502459 170.7046014 146.30774117 175.25014877 C146.30669411 176.91866196 146.30906537 178.58718131 146.31510162 180.2556839 C146.32280754 182.53319345 146.31818615 184.8103581 146.31047058 187.08786011 C146.31101535 188.36249052 146.31156012 189.63712093 146.31212139 190.95037651 C146.07157095 194.16328478 145.44844479 196.38924335 144.06323242 199.2746582 C143.40323242 199.2746582 142.74323242 199.2746582 142.06323242 199.2746582 C141.73323242 200.5946582 141.40323242 201.9146582 141.06323242 203.2746582 C140.40323242 203.2746582 139.74323242 203.2746582 139.06323242 203.2746582 C139.06323242 203.9346582 139.06323242 204.5946582 139.06323242 205.2746582 C137.29365336 207.60305171 136.24739726 208.22754627 133.37573242 208.9621582 C132.61260742 209.0652832 131.84948242 209.1684082 131.06323242 209.2746582 C131.06323242 209.9346582 131.06323242 210.5946582 131.06323242 211.2746582 C127.32233792 212.14177506 123.86537631 212.40026529 120.02880859 212.40164185 C118.81752289 212.40446167 117.60623718 212.40728149 116.35824585 212.41018677 C115.02423081 212.40824266 113.69021591 212.40619451 112.35620117 212.40405273 C110.94487462 212.40540844 109.53354843 212.40718933 108.1222229 212.40936279 C104.29585017 212.41391692 100.46950445 212.41215586 96.64313126 212.40898371 C92.63627297 212.40644968 88.62941697 212.40880056 84.62255859 212.41036987 C77.89412013 212.41218852 71.16569265 212.40979324 64.43725586 212.4050293 C56.6613804 212.39958726 48.88553116 212.40135014 41.10965633 212.4068557 C34.43012486 212.4113955 27.75060128 212.41203312 21.07106876 212.40941703 C17.08313123 212.40785904 13.09520602 212.40764743 9.10726929 212.41095352 C5.35787098 212.41384481 1.60850645 212.41183338 -2.14088821 212.40605927 C-3.51591562 212.40473842 -4.89094587 212.40511431 -6.26597214 212.40732193 C-8.14476163 212.41005995 -10.02355735 212.40601558 -11.90234375 212.40164185 C-12.95314621 212.40126482 -14.00394867 212.40088779 -15.08659363 212.40049934 C-19.91685129 212.18723337 -23.31592184 211.62729315 -26.93676758 208.2746582 C-26.93676758 207.6146582 -26.93676758 206.9546582 -26.93676758 206.2746582 C-27.51426758 206.2127832 -28.09176758 206.1509082 -28.68676758 206.0871582 C-32.85385961 204.58237497 -34.57023097 200.91609727 -36.68676758 197.2121582 C-37.93676758 194.2746582 -37.93676758 194.2746582 -37.93676758 190.2746582 C-38.59676758 190.2746582 -39.25676758 190.2746582 -39.93676758 190.2746582 C-40.00688637 168.76913573 -40.05976985 147.26363214 -40.09220409 125.75801849 C-40.10766497 115.77231522 -40.12873963 105.78668303 -40.16308594 95.80102539 C-40.19301211 87.09629534 -40.21234825 78.39161678 -40.21903306 69.68683672 C-40.22293986 65.07883358 -40.23210519 60.47097773 -40.25395775 55.86302185 C-40.27437373 51.52267966 -40.28059106 47.18254492 -40.27609062 42.84215927 C-40.27691354 41.2523015 -40.28284872 39.66243653 -40.294384 38.07262039 C-40.396472 23.27225124 -40.396472 23.27225124 -36.93676758 16.2746582 C-36.27676758 16.2746582 -35.61676758 16.2746582 -34.93676758 16.2746582 C-34.75114258 15.5734082 -34.56551758 14.8721582 -34.37426758 14.1496582 C-30.93479438 7.2707118 -24.03075226 3.78338405 -17.05781555 1.21369934 C-11.48889806 -0.33010841 -5.73308047 -0.01171766 0 0 Z " fill="#018AD5" transform="translate(844.936767578125,435.725341796875)"/>
<path d="M0 0 C23.71199932 -0.04614757 47.42398194 -0.08624313 71.13601774 -0.10799903 C81.28823929 -0.1174401 91.44043345 -0.12988132 101.59263802 -0.15104103 C110.11592958 -0.16876734 118.6391945 -0.17963149 127.16250496 -0.18139152 C131.49531183 -0.18247757 135.82805189 -0.18675781 140.16084075 -0.19977641 C144.12893645 -0.211608 148.09692596 -0.21407547 152.06503531 -0.20921647 C153.49522768 -0.20907979 154.9254254 -0.21230038 156.35560057 -0.21931703 C164.15679421 -0.25555602 171.43793871 0.07565752 179.01490021 2.02498627 C179.01490021 2.68498627 179.01490021 3.34498627 179.01490021 4.02498627 C179.88115021 4.08686127 179.88115021 4.08686127 180.76490021 4.14998627 C184.27276301 5.51415514 185.22527004 7.78290263 187.01490021 11.02498627 C187.51099396 14.71639252 187.51099396 14.71639252 187.45240021 18.58748627 C187.45111115 19.86752533 187.44982208 21.14756439 187.44849396 22.46639252 C186.83919388 27.46704452 185.16385445 29.96220359 181.51490021 33.33748627 C179.01490021 35.02498627 179.01490021 35.02498627 176.01490021 35.02498627 C176.01490021 35.68498627 176.01490021 36.34498627 176.01490021 37.02498627 C-7.46509979 37.02498627 -190.94509979 37.02498627 -379.98509979 37.02498627 C-379.98509979 36.36498627 -379.98509979 35.70498627 -379.98509979 35.02498627 C-380.74822479 34.92186127 -381.51134979 34.81873627 -382.29759979 34.71248627 C-385.16926463 33.97787433 -386.21552073 33.35337977 -387.98509979 31.02498627 C-387.98509979 30.36498627 -387.98509979 29.70498627 -387.98509979 29.02498627 C-388.64509979 29.02498627 -389.30509979 29.02498627 -389.98509979 29.02498627 C-392.96906524 22.22154504 -393.4922529 18.12779196 -390.86009979 10.96248627 C-387.92209975 6.35961953 -384.21007877 2.76664592 -378.98509979 1.02498627 C-377.12813157 0.92835605 -375.26785572 0.8912049 -373.40838146 0.88632107 C-372.23972473 0.88084662 -371.07106799 0.87537218 -369.86699742 0.86973184 C-368.57579466 0.86875374 -367.2845919 0.86777563 -365.95426178 0.86676788 C-364.5717043 0.86220197 -363.1891482 0.85720191 -361.80659372 0.85180432 C-357.99177058 0.8381864 -354.17695639 0.83079217 -350.36211526 0.82437766 C-346.24207349 0.81637603 -342.12205027 0.80266492 -338.00202179 0.78966522 C-329.87408892 0.76493841 -321.74615136 0.74556392 -313.61820038 0.72791248 C-303.97633703 0.70676901 -294.3344902 0.6803279 -284.69264058 0.65374101 C-267.25652609 0.60584518 -249.82040292 0.56275493 -232.38426971 0.52230072 C-215.89695486 0.48404358 -199.40965252 0.44266319 -182.92235565 0.39730072 C-180.92053664 0.39180519 -178.91871763 0.38631088 -176.91689861 0.38081777 C-175.43206906 0.37674307 -175.43206906 0.37674307 -173.91724295 0.37258605 C-172.43340568 0.3685155 -172.43340568 0.3685155 -170.9195919 0.36436272 C-169.93126731 0.36165132 -168.94294272 0.35893992 -167.9246689 0.35614636 C-122.51978328 0.23181956 -77.11487597 0.13389447 -31.70988524 0.05726635 C-21.13992091 0.03939121 -10.56995931 0.02064834 0 0 Z " fill="#018AD5" transform="translate(803.9850997924805,782.9750137329102)"/>
<path d="M0 0 C4.89297012 -0.04955872 9.78579305 -0.0857946 14.67895508 -0.10986328 C16.34239244 -0.11990057 18.00581225 -0.13353331 19.66918945 -0.15087891 C22.06466005 -0.17522749 24.45989668 -0.18650588 26.85546875 -0.1953125 C27.96513252 -0.21079636 27.96513252 -0.21079636 29.09721375 -0.22659302 C33.22019316 -0.22748233 36.27182501 0.25828013 40 2 C41.9924325 2.37593066 43.9918674 2.71979545 46 3 C46 3.66 46 4.32 46 5 C47.65 5.33 49.3 5.66 51 6 C51 6.66 51 7.32 51 8 C52.65 8.33 54.3 8.66 56 9 C56 9.66 56 10.32 56 11 C57.65 11.33 59.3 11.66 61 12 C61 12.66 61 13.32 61 14 C62.32 14.33 63.64 14.66 65 15 C65 15.66 65 16.32 65 17 C66.98 17.495 66.98 17.495 69 18 C69 18.66 69 19.32 69 20 C69.86625 20.0928125 69.86625 20.0928125 70.75 20.1875 C73.89829784 21.32438533 74.98091594 23.36907229 77 26 C77.763125 26.5775 78.52625 27.155 79.3125 27.75 C83.16243876 30.97320454 86.20750377 34.83137451 89 39 C89 39.66 89 40.32 89 41 C89.66 41 90.32 41 91 41 C93.01782732 43.90567134 94.35494404 46.51669784 95 50 C95.66 50 96.32 50 97 50 C97.33 51.98 97.66 53.96 98 56 C98.66 56 99.32 56 100 56 C100 57.65 100 59.3 100 61 C100.66 61 101.32 61 102 61 C107.61045072 77.7562122 107.61045072 93.2437878 102 110 C101.34 110 100.68 110 100 110 C99.88140625 110.7321875 99.7628125 111.464375 99.640625 112.21875 C99.00128431 114.99442421 98.12954178 117.0203173 96.75 119.5 C96.35296875 120.2321875 95.9559375 120.964375 95.546875 121.71875 C93.65792457 124.50447487 91.40168224 126.64477887 89 129 C87.3920881 130.87503275 85.80828186 132.77102247 84.25 134.6875 C83.47140625 135.64011719 82.6928125 136.59273437 81.890625 137.57421875 C80.00013941 139.8354719 80.00013941 139.8354719 79 142 C78.01 142 77.02 142 76 142 C75.67 142.99 75.34 143.98 75 145 C72.9375 145.6875 72.9375 145.6875 71 146 C71 146.66 71 147.32 71 148 C67.16812489 149.2772917 63.55291683 149.14510286 59.5625 149.125 C58.79873047 149.12886719 58.03496094 149.13273438 57.24804688 149.13671875 C56.50748047 149.13542969 55.76691406 149.13414062 55.00390625 149.1328125 C54.33174072 149.13168457 53.6595752 149.13055664 52.96704102 149.12939453 C50.87832541 148.99199609 49.01169075 148.56530559 47 148 C47 147.34 47 146.68 47 146 C46.41089844 145.91105469 45.82179688 145.82210937 45.21484375 145.73046875 C42.42055625 144.80889598 41.42404014 143.56956367 39.5625 141.3125 C38.65564453 140.23162109 38.65564453 140.23162109 37.73046875 139.12890625 C36.68868779 137.84725699 35.64896479 136.56392527 34.61328125 135.27734375 C31.99706686 132.05040423 29.29832055 129.51713936 26 127 C24.1875 125.375 24.1875 125.375 23 124 C23 123.34 23 122.68 23 122 C21.02 121.505 21.02 121.505 19 121 C19 120.34 19 119.68 19 119 C18.401875 118.896875 17.80375 118.79375 17.1875 118.6875 C14.68741714 117.90175967 13.62464918 117.03081147 12 115 C12 114.34 12 113.68 12 113 C11.0409375 112.814375 11.0409375 112.814375 10.0625 112.625 C9.381875 112.41875 8.70125 112.2125 8 112 C7.67 111.34 7.34 110.68 7 110 C6.01 109.67 5.02 109.34 4 109 C2.3125 107.5625 2.3125 107.5625 1 106 C1 105.34 1 104.68 1 104 C0.0409375 103.814375 0.0409375 103.814375 -0.9375 103.625 C-1.618125 103.41875 -2.29875 103.2125 -3 103 C-3.33 102.34 -3.66 101.68 -4 101 C-6.78195508 99.03874987 -6.78195508 99.03874987 -9.125 98 C-11 97 -11 97 -12 95 C-12.99 94.67 -13.98 94.34 -15 94 C-16.6875 92.5625 -16.6875 92.5625 -18 91 C-18 90.34 -18 89.68 -18 89 C-19.2065625 88.814375 -19.2065625 88.814375 -20.4375 88.625 C-21.7059375 88.315625 -21.7059375 88.315625 -23 88 C-23.495 87.01 -23.495 87.01 -24 86 C-25.485 85.505 -25.485 85.505 -27 85 C-27 84.34 -27 83.68 -27 83 C-27.7425 82.896875 -28.485 82.79375 -29.25 82.6875 C-32.1973519 81.95066203 -33.78383074 81.05200858 -36 79 C-36 78.34 -36 77.68 -36 77 C-36.763125 76.71125 -37.52625 76.4225 -38.3125 76.125 C-41 75 -41 75 -44 73 C-44 72.34 -44 71.68 -44 71 C-44.66 71 -45.32 71 -46 71 C-49.38364818 67.00114306 -50.5301989 63.68836321 -51.21484375 58.5390625 C-50.65188797 51.88594868 -47.15618307 46.20581383 -43.5078125 40.796875 C-43.07999481 40.15179993 -42.65217712 39.50672485 -42.21139526 38.84210205 C-41.31270092 37.49169712 -40.40998886 36.14395794 -39.50341797 34.79882812 C-38.12416412 32.74875758 -36.76261069 30.68770389 -35.40234375 28.625 C-34.52186878 27.30659957 -33.64039222 25.98886737 -32.7578125 24.671875 C-32.3555545 24.0614032 -31.95329651 23.4509314 -31.53884888 22.82196045 C-29.07333228 19.19336832 -26.53001263 16.58832743 -23 14 C-22.443125 13.4225 -21.88625 12.845 -21.3125 12.25 C-20 11 -20 11 -18 11 C-18 10.34 -18 9.68 -18 9 C-16.35 8.67 -14.7 8.34 -13 8 C-13 7.34 -13 6.68 -13 6 C-12.01 5.67 -11.02 5.34 -10 5 C-9.67 4.34 -9.34 3.68 -9 3 C-6.93359375 2.5859375 -6.93359375 2.5859375 -4.4375 2.375 C-3.61121094 2.30023438 -2.78492188 2.22546875 -1.93359375 2.1484375 C-0.97646484 2.07496094 -0.97646484 2.07496094 0 2 C0 1.34 0 0.68 0 0 Z " fill="#018AD5" transform="translate(728,180)"/>
<path d="M0 0 C1.30072409 -0.00750224 2.60144819 -0.01500447 3.94158816 -0.02273405 C7.54587842 -0.0430039 11.14996953 -0.04456307 14.75430751 -0.04294276 C18.64403823 -0.0443886 22.53369362 -0.06297938 26.42338562 -0.07919312 C34.9254994 -0.11129335 43.42755248 -0.12112522 51.92971897 -0.12683535 C57.24023049 -0.13058803 62.55072583 -0.13939728 67.86122894 -0.14933395 C82.56990308 -0.17627067 97.27856159 -0.19878222 111.98726273 -0.20121193 C112.92820437 -0.2013675 113.86914601 -0.20152308 114.83860104 -0.20168336 C116.74604305 -0.20197442 118.65348505 -0.20225979 120.56092706 -0.20253952 C121.98117497 -0.2027538 121.98117497 -0.2027538 123.43011475 -0.20297241 C124.37810474 -0.20311208 125.32609474 -0.20325175 126.30281171 -0.20339565 C141.66349976 -0.20653089 157.02390582 -0.2431211 172.38450077 -0.29460867 C188.16198878 -0.34707132 203.93933758 -0.37332472 219.71691489 -0.37276304 C228.57270566 -0.37301556 237.42817231 -0.3842304 246.28388214 -0.42393875 C253.82456073 -0.45757896 261.36478902 -0.46700086 268.90551934 -0.4451818 C272.75108135 -0.43475644 276.59576178 -0.4355083 280.44122887 -0.46694565 C284.61568603 -0.50073813 288.78813299 -0.47996596 292.96264648 -0.45410156 C294.17063786 -0.47244509 295.37862923 -0.49078862 296.6232264 -0.50968802 C304.97670155 -0.39271235 310.05424859 1.76746043 316.23529053 7.40786743 C319.33163652 10.6439349 321.13083086 13.25881107 321.54779053 17.84536743 C321.44466553 18.69099243 321.34154053 19.53661743 321.23529053 20.40786743 C321.89529053 20.40786743 322.55529053 20.40786743 323.23529053 20.40786743 C323.23529053 21.06786743 323.23529053 21.72786743 323.23529053 22.40786743 C322.57529053 22.40786743 321.91529053 22.40786743 321.23529053 22.40786743 C321.35904053 23.39786743 321.48279053 24.38786743 321.61029053 25.40786743 C321.61927904 29.82122683 319.61846433 32.40554949 316.90325928 35.73989868 C314.87438623 37.76877173 313.02724776 38.75093632 310.23529053 39.40786743 C310.23529053 40.06786743 310.23529053 40.72786743 310.23529053 41.40786743 C307.02278581 42.36043164 304.13549731 42.53314396 300.79074192 42.53370857 C299.67814143 42.53631632 298.56554093 42.53892407 297.41922528 42.54161084 C296.19696568 42.53938012 294.97470609 42.53714939 293.71540833 42.53485107 C292.4169488 42.53641106 291.11848928 42.53797106 289.7806825 42.53957832 C286.17366376 42.54376059 282.5666714 42.54168589 278.95965254 42.5385921 C275.07070016 42.53633373 271.18175238 42.53981982 267.2928009 42.54257202 C259.67290685 42.54702413 252.05302263 42.54605569 244.43312819 42.54315938 C238.24094997 42.540903 232.04877451 42.54059385 225.85659599 42.5416832 C224.53572704 42.54191305 224.53572704 42.54191305 223.18817387 42.54214754 C221.39940266 42.54246726 219.61063145 42.54279147 217.82186025 42.54312013 C201.03887036 42.54597333 184.25588592 42.54269049 167.47289693 42.53731976 C153.06760156 42.53285265 138.66231426 42.53362721 124.25701904 42.53823853 C107.53652181 42.54358845 90.81602937 42.54569783 74.0955314 42.54262626 C72.31295455 42.54230771 70.53037769 42.54199334 68.74780083 42.5416832 C67.87069727 42.54152892 66.99359372 42.54137465 66.08991127 42.5412157 C59.90460076 42.54035174 53.71929328 42.54181083 47.53398323 42.54416275 C39.99690196 42.54696561 32.4598311 42.54621222 24.92275102 42.54088201 C21.07611681 42.53825147 17.22949999 42.53722901 13.38286591 42.54053116 C9.21594756 42.54405418 5.0490732 42.53985127 0.88215637 42.53485107 C-0.3378725 42.5370818 -1.55790137 42.53931252 -2.81490082 42.54161084 C-3.93010906 42.53900309 -5.0453173 42.53639534 -6.19431973 42.53370857 C-7.15626135 42.53354622 -8.11820298 42.53338387 -9.10929435 42.5332166 C-11.75547123 42.40830352 -14.18567304 41.99770108 -16.76470947 41.40786743 C-16.76470947 40.74786743 -16.76470947 40.08786743 -16.76470947 39.40786743 C-17.52783447 39.30474243 -18.29095947 39.20161743 -19.07720947 39.09536743 C-21.9627876 38.35719628 -23.02650765 37.7864594 -24.76470947 35.40786743 C-24.76470947 34.41786743 -24.76470947 33.42786743 -24.76470947 32.40786743 C-25.42470947 32.40786743 -26.08470947 32.40786743 -26.76470947 32.40786743 C-26.88131772 29.01232508 -26.95209319 25.61730064 -27.01470947 22.22036743 C-27.06498291 20.78080688 -27.06498291 20.78080688 -27.11627197 19.31216431 C-27.21528022 12.15881867 -27.21528022 12.15881867 -24.88970947 8.28286743 C-22.7607701 6.40439151 -21.56031898 5.70739702 -18.76470947 5.40786743 C-18.76470947 4.74786743 -18.76470947 4.08786743 -18.76470947 3.40786743 C-12.88021341 -0.53215432 -6.8910977 -0.02244542 0 0 Z " fill="#018AD5" transform="translate(35.76470947265625,450.5921325683594)"/>
<path d="M0 0 C81.84 0 163.68 0 248 0 C248 0.66 248 1.32 248 2 C251.96 2.495 251.96 2.495 256 3 C256 3.66 256 4.32 256 5 C256.86625 5.309375 256.86625 5.309375 257.75 5.625 C261.66850794 8.01964374 263.57583774 11.72751322 265 16 C265.55096945 22.65401569 265.41991867 28.1734719 262 34 C260.515 34.495 260.515 34.495 259 35 C258.67 35.99 258.34 36.98 258 38 C257.34 38 256.68 38 256 38 C256 38.66 256 39.32 256 40 C254.35 40.33 252.7 40.66 251 41 C251 41.66 251 42.32 251 43 C167.18 43 83.36 43 -3 43 C-3 42.34 -3 41.68 -3 41 C-4.1446875 40.566875 -4.1446875 40.566875 -5.3125 40.125 C-8 39 -8 39 -11 37 C-11 36.34 -11 35.68 -11 35 C-11.66 35 -12.32 35 -13 35 C-15.16926659 31.74610012 -15.24080049 30.86604043 -15.1953125 27.11328125 C-15.18886719 26.17548828 -15.18242187 25.23769531 -15.17578125 24.27148438 C-15.15902344 23.29501953 -15.14226563 22.31855469 -15.125 21.3125 C-15.11597656 20.32443359 -15.10695313 19.33636719 -15.09765625 18.31835938 C-15.0740843 15.87866235 -15.04118022 13.43945303 -15 11 C-14.34 11 -13.68 11 -13 11 C-13 10.34 -13 9.68 -13 9 C-11.34997172 7.64613064 -9.6825613 6.31321858 -8 5 C-7.67 4.34 -7.34 3.68 -7 3 C-4.6859378 2.26924352 -2.35171131 1.59861742 0 1 C0 0.67 0 0.34 0 0 Z " fill="#018AD5" transform="translate(24,559)"/>
<path d="M0 0 C1.19071182 -0.00233999 1.19071182 -0.00233999 2.40547842 -0.00472724 C5.05618092 -0.00870486 7.70682579 -0.00556017 10.35752869 -0.00241089 C12.26160719 -0.00376635 14.16568544 -0.00554711 16.06976318 -0.00772095 C21.23487468 -0.01227767 26.39996618 -0.01051302 31.56507802 -0.00734186 C36.97062181 -0.00480955 42.3761639 -0.0071582 47.78170776 -0.00872803 C56.8580913 -0.01054701 65.9344667 -0.00815033 75.010849 -0.00338745 C85.50593723 0.00205628 96.00100605 0.00029061 106.49609381 -0.00521386 C115.50683574 -0.00975072 124.51757183 -0.01039276 133.52831453 -0.00777519 C138.91016644 -0.00621579 144.29200922 -0.00600947 149.67386055 -0.00931168 C154.73240634 -0.01219875 159.79092706 -0.01019924 164.84947014 -0.00441742 C166.70665317 -0.0030944 168.56383831 -0.00347619 170.42102051 -0.00568008 C172.95445563 -0.00840947 175.48781025 -0.0049885 178.02124023 0 C178.75742728 -0.00223072 179.49361432 -0.00446144 180.25211006 -0.00675976 C183.94297953 0.00735223 187.357939 0.24596951 190.9471283 1.12698364 C190.9471283 1.78698364 190.9471283 2.44698364 190.9471283 3.12698364 C192.5971283 3.45698364 194.2471283 3.78698364 195.9471283 4.12698364 C195.9471283 4.78698364 195.9471283 5.44698364 195.9471283 6.12698364 C196.5452533 6.33323364 197.1433783 6.53948364 197.7596283 6.75198364 C200.86724868 8.70534503 201.56988526 10.74647801 202.9471283 14.12698364 C203.24009705 17.77542114 203.24009705 17.77542114 203.1346283 21.50198364 C203.09402283 23.36983521 203.09402283 23.36983521 203.05259705 25.27542114 C203.01779236 26.21643677 202.98298767 27.15745239 202.9471283 28.12698364 C202.2871283 28.12698364 201.6271283 28.12698364 200.9471283 28.12698364 C200.6171283 30.10698364 200.2871283 32.08698364 199.9471283 34.12698364 C199.2871283 34.12698364 198.6271283 34.12698364 197.9471283 34.12698364 C197.9471283 34.78698364 197.9471283 35.44698364 197.9471283 36.12698364 C195.48196989 39.46219796 191.79309764 40.89998113 187.9471283 42.12698364 C185.08204295 42.40640764 182.43882153 42.54580842 179.5798645 42.52812195 C178.76422871 42.53491862 177.94859293 42.54171529 177.1082409 42.54871792 C174.38928476 42.56762992 171.67078139 42.565257 168.95176697 42.56277466 C166.99653548 42.57175594 165.0413093 42.58196503 163.08609009 42.5933075 C157.78432081 42.61977399 152.48269686 42.62683955 147.18086791 42.62875485 C143.86588711 42.63088938 140.5509431 42.63729805 137.23597145 42.64524651 C125.66367376 42.67298888 114.09147963 42.68525341 102.51914978 42.68289185 C91.74391619 42.68108983 80.96913332 42.71274294 70.19401377 42.76012284 C60.93262499 42.79939071 51.67138329 42.81544181 42.40991193 42.81352562 C36.88299886 42.81276187 31.3564865 42.82124817 25.8296566 42.85305977 C20.62966653 42.88217396 15.4304583 42.88229327 10.23044014 42.86050987 C8.32696766 42.85738106 6.42344589 42.86440951 4.52005768 42.88259125 C-12.76055109 43.03691059 -12.76055109 43.03691059 -20.25385571 37.90214443 C-24.61447503 33.59934754 -25.48958512 29.80971094 -25.60951233 23.91995239 C-25.61144592 23.03952271 -25.61337952 22.15909302 -25.6153717 21.25198364 C-25.65210999 20.37928833 -25.68884827 19.50659302 -25.72669983 18.60745239 C-25.7662682 12.76012621 -24.65952579 9.65262886 -20.62635803 5.39382935 C-18.52721033 3.70376303 -16.73002672 3.2057235 -14.0528717 3.12698364 C-14.0528717 2.46698364 -14.0528717 1.80698364 -14.0528717 1.12698364 C-9.34331453 0.19879625 -4.78286435 -0.01453661 0 0 Z " fill="#018AD5" transform="translate(34.05287170410156,667.8730163574219)"/>
<path d="M0 0 C1.29675659 -0.00175232 2.59351318 -0.00350464 3.92956543 -0.00531006 C7.47083988 -0.00985132 11.01208505 -0.00810847 14.55335999 -0.00493097 C18.26832149 -0.00239025 21.98328058 -0.00474967 25.69824219 -0.00631714 C31.93555143 -0.00813384 38.17284881 -0.00574562 44.41015625 -0.00097656 C51.61004461 0.0044651 58.80990465 0.00270209 66.00979233 -0.00280297 C72.20362464 -0.00734832 78.39744845 -0.00797768 84.59128189 -0.0053643 C88.28526524 -0.00380936 91.97923529 -0.00358627 95.67321777 -0.00690079 C99.79257877 -0.01033914 103.91189133 -0.00556653 108.03125 0 C109.24808472 -0.00202423 110.46491943 -0.00404846 111.71862793 -0.00613403 C117.25673778 0.00772262 122.5626021 0.1316503 128.015625 1.12939453 C128.015625 1.78939453 128.015625 2.44939453 128.015625 3.12939453 C129.995625 3.62439453 129.995625 3.62439453 132.015625 4.12939453 C132.015625 4.78939453 132.015625 5.44939453 132.015625 6.12939453 C132.593125 6.17064453 133.170625 6.21189453 133.765625 6.25439453 C137.23064841 7.60190364 138.24374294 9.9522267 140.015625 13.12939453 C141.21503262 17.33463466 140.94253534 21.10946052 140.578125 25.44189453 C140.47628906 26.69615234 140.37445312 27.95041016 140.26953125 29.24267578 C140.18574219 30.19529297 140.10195313 31.14791016 140.015625 32.12939453 C139.355625 32.12939453 138.695625 32.12939453 138.015625 32.12939453 C137.974375 32.70689453 137.933125 33.28439453 137.890625 33.87939453 C136.56109371 37.29818928 134.11895871 38.35606099 131.015625 40.12939453 C130.355625 40.12939453 129.695625 40.12939453 129.015625 40.12939453 C129.015625 40.78939453 129.015625 41.44939453 129.015625 42.12939453 C125.32720924 42.98037392 121.92173902 43.25498025 118.13978577 43.25637817 C116.37550987 43.26060791 116.37550987 43.26060791 114.57559204 43.2649231 C113.2938913 43.26289886 112.01219055 43.26087463 110.69165039 43.25878906 C109.32135471 43.26014485 107.9510594 43.26192578 106.58076477 43.26409912 C102.86589132 43.26865277 99.15104569 43.26689227 95.43617177 43.26372004 C91.54455952 43.26118525 87.65294963 43.26353714 83.76133728 43.2651062 C77.22540866 43.26692484 70.68949135 43.26452981 64.15356445 43.25976562 C56.60378744 43.25432587 49.05403744 43.25608481 41.50426108 43.26159203 C35.01664438 43.26613457 28.52903579 43.26676805 22.04141802 43.26415336 C18.16914359 43.26259658 14.29688184 43.26238038 10.42460823 43.26568985 C6.78272809 43.26858504 3.14088267 43.2665626 -0.50099373 43.26079559 C-2.4702665 43.2588491 -4.43954221 43.26180804 -6.40881348 43.2649231 C-8.17731911 43.26069336 -8.17731911 43.26069336 -9.98155212 43.25637817 C-11.00193542 43.25600115 -12.02231871 43.25562412 -13.0736227 43.25523567 C-16.11314586 43.12382735 -18.99652093 42.6895137 -21.984375 42.12939453 C-21.984375 41.46939453 -21.984375 40.80939453 -21.984375 40.12939453 C-22.70625 39.88189453 -23.428125 39.63439453 -24.171875 39.37939453 C-27.48922132 37.90501839 -29.49947761 36.81577009 -31.984375 34.12939453 C-34.51955869 27.42302192 -34.5129689 20.07357825 -32.984375 13.12939453 C-31.109375 9.62939453 -31.109375 9.62939453 -28.984375 7.12939453 C-28.530625 6.53126953 -28.076875 5.93314453 -27.609375 5.31689453 C-25.23100426 3.57885437 -22.86384795 3.44933597 -19.984375 3.12939453 C-19.984375 2.46939453 -19.984375 1.80939453 -19.984375 1.12939453 C-13.32999187 -0.08816361 -6.74940865 -0.01122779 0 0 Z " fill="#018AD5" transform="translate(606.984375,673.87060546875)"/>
<path d="" fill="#018AD5" transform="translate(0,0)"/>
<path d="" fill="#018AD5" transform="translate(0,0)"/>
</svg>
